# Exported by dyntopolib
o fear_big
v 0.960000 4.406610 0.000000
v 0.960000 4.406610 0.000000
v 0.960000 3.135259 -0.109304
v 0.960000 3.135259 0.109304
v 0.960000 1.863908 -0.264909
v 0.960000 1.863908 0.264909
v 0.960000 0.592556 -0.466814
v 0.960000 0.592556 0.466814
v 0.960000 -0.678795 -0.715019
v 0.960000 -0.678795 0.715019
v 0.960000 -1.950146 -1.009525
v 0.960000 -1.950146 1.009525
v 0.960000 -3.221498 -1.350332
v 0.960000 -3.221498 1.350332
v 0.960000 -4.492849 -1.737439
v 0.960000 -4.492849 1.737439
v 0.960000 -5.764201 -2.170846
v 0.960000 -5.764201 2.170846
v 0.960000 -7.035553 -2.650554
v 0.960000 -7.035553 2.650554
v 0.960000 -8.306904 -3.176563
v 0.960000 -8.306904 3.176563
v 0.960000 -9.578255 -3.748871
v 0.960000 -9.578255 3.748871
v 0.960000 -10.849607 -4.367481
v 0.960000 -10.849607 4.367481
v 0.960000 -12.120958 -5.032391
v 0.960000 -12.120958 5.032391
v 0.678822 4.406610 0.678822
v 0.678822 4.406610 0.678822
v 0.756112 3.135259 0.601533
v 0.601533 3.135259 0.756112
v 0.866141 1.863908 0.491504
v 0.491504 1.863908 0.866141
v 1.008910 0.592556 0.348735
v 0.348735 0.592556 1.008910
v 1.184417 -0.678795 0.173228
v 0.173228 -0.678795 1.184417
v 1.392665 -1.950146 -0.035020
v -0.035020 -1.950146 1.392665
v 1.633651 -3.221498 -0.276006
v -0.276006 -3.221498 1.633651
v 1.907377 -4.492849 -0.549732
v -0.549732 -4.492849 1.907377
v 2.213843 -5.764201 -0.856198
v -0.856198 -5.764201 2.213843
v 2.553047 -7.035553 -1.195403
v -1.195403 -7.035553 2.553047
v 2.924991 -8.306904 -1.567346
v -1.567346 -8.306904 2.924991
v 3.329675 -9.578255 -1.972030
v -1.972030 -9.578255 3.329675
v 3.767098 -10.849607 -2.409453
v -2.409453 -10.849607 3.767098
v 4.237260 -12.120958 -2.879615
v -2.879615 -12.120958 4.237260
v 0.000000 4.406610 0.960000
v 0.000000 4.406610 0.960000
v 0.109304 3.135259 0.960000
v -0.109304 3.135259 0.960000
v 0.264909 1.863908 0.960000
v -0.264909 1.863908 0.960000
v 0.466814 0.592556 0.960000
v -0.466814 0.592556 0.960000
v 0.715019 -0.678795 0.960000
v -0.715019 -0.678795 0.960000
v 1.009525 -1.950146 0.960000
v -1.009525 -1.950146 0.960000
v 1.350332 -3.221498 0.960000
v -1.350332 -3.221498 0.960000
v 1.737439 -4.492849 0.960000
v -1.737439 -4.492849 0.960000
v 2.170846 -5.764201 0.960000
v -2.170846 -5.764201 0.960000
v 2.650554 -7.035553 0.960000
v -2.650554 -7.035553 0.960000
v 3.176563 -8.306904 0.960000
v -3.176563 -8.306904 0.960000
v 3.748871 -9.578255 0.960000
v -3.748871 -9.578255 0.960000
v 4.367481 -10.849607 0.960000
v -4.367481 -10.849607 0.960000
v 5.032391 -12.120958 0.960000
v -5.032391 -12.120958 0.960000
v -0.678822 4.406610 0.678822
v -0.678822 4.406610 0.678822
v -0.601533 3.135259 0.756112
v -0.756112 3.135259 0.601533
v -0.491504 1.863908 0.866141
v -0.866141 1.863908 0.491504
v -0.348735 0.592556 1.008910
v -1.008910 0.592556 0.348735
v -0.173228 -0.678795 1.184417
v -1.184417 -0.678795 0.173228
v 0.035020 -1.950146 1.392665
v -1.392665 -1.950146 -0.035020
v 0.276006 -3.221498 1.633651
v -1.633651 -3.221498 -0.276006
v 0.549732 -4.492849 1.907377
v -1.907377 -4.492849 -0.549732
v 0.856198 -5.764201 2.213843
v -2.213843 -5.764201 -0.856198
v 1.195403 -7.035553 2.553047
v -2.553047 -7.035553 -1.195403
v 1.567346 -8.306904 2.924991
v -2.924991 -8.306904 -1.567346
v 1.972030 -9.578255 3.329675
v -3.329675 -9.578255 -1.972030
v 2.409453 -10.849607 3.767098
v -3.767098 -10.849607 -2.409453
v 2.879615 -12.120958 4.237260
v -4.237260 -12.120958 -2.879615
v -0.960000 4.406610 0.000000
v -0.960000 4.406610 0.000000
v -0.960000 3.135259 0.109304
v -0.960000 3.135259 -0.109304
v -0.960000 1.863908 0.264909
v -0.960000 1.863908 -0.264909
v -0.960000 0.592556 0.466814
v -0.960000 0.592556 -0.466814
v -0.960000 -0.678795 0.715019
v -0.960000 -0.678795 -0.715019
v -0.960000 -1.950146 1.009525
v -0.960000 -1.950146 -1.009525
v -0.960000 -3.221498 1.350332
v -0.960000 -3.221498 -1.350332
v -0.960000 -4.492849 1.737439
v -0.960000 -4.492849 -1.737439
v -0.960000 -5.764201 2.170846
v -0.960000 -5.764201 -2.170846
v -0.960000 -7.035553 2.650554
v -0.960000 -7.035553 -2.650554
v -0.960000 -8.306904 3.176563
v -0.960000 -8.306904 -3.176563
v -0.960000 -9.578255 3.748871
v -0.960000 -9.578255 -3.748871
v -0.960000 -10.849607 4.367481
v -0.960000 -10.849607 -4.367481
v -0.960000 -12.120958 5.032391
v -0.960000 -12.120958 -5.032391
v -0.678822 4.406610 -0.678822
v -0.678822 4.406610 -0.678822
v -0.756112 3.135259 -0.601533
v -0.601533 3.135259 -0.756112
v -0.866141 1.863908 -0.491504
v -0.491504 1.863908 -0.866141
v -1.008910 0.592556 -0.348735
v -0.348735 0.592556 -1.008910
v -1.184417 -0.678795 -0.173228
v -0.173228 -0.678795 -1.184417
v -1.392665 -1.950146 0.035020
v 0.035020 -1.950146 -1.392665
v -1.633651 -3.221498 0.276006
v 0.276006 -3.221498 -1.633651
v -1.907377 -4.492849 0.549732
v 0.549732 -4.492849 -1.907377
v -2.213843 -5.764201 0.856198
v 0.856198 -5.764201 -2.213843
v -2.553047 -7.035553 1.195403
v 1.195403 -7.035553 -2.553047
v -2.924991 -8.306904 1.567346
v 1.567346 -8.306904 -2.924991
v -3.329675 -9.578255 1.972030
v 1.972030 -9.578255 -3.329675
v -3.767098 -10.849607 2.409453
v 2.409453 -10.849607 -3.767098
v -4.237260 -12.120958 2.879615
v 2.879615 -12.120958 -4.237260
v -0.000000 4.406610 -0.960000
v -0.000000 4.406610 -0.960000
v -0.109304 3.135259 -0.960000
v 0.109304 3.135259 -0.960000
v -0.264909 1.863908 -0.960000
v 0.264909 1.863908 -0.960000
v -0.466814 0.592556 -0.960000
v 0.466814 0.592556 -0.960000
v -0.715019 -0.678795 -0.960000
v 0.715019 -0.678795 -0.960000
v -1.009525 -1.950146 -0.960000
v 1.009525 -1.950146 -0.960000
v -1.350332 -3.221498 -0.960000
v 1.350332 -3.221498 -0.960000
v -1.737439 -4.492849 -0.960000
v 1.737439 -4.492849 -0.960000
v -2.170846 -5.764201 -0.960000
v 2.170846 -5.764201 -0.960000
v -2.650554 -7.035553 -0.960000
v 2.650554 -7.035553 -0.960000
v -3.176563 -8.306904 -0.960000
v 3.176563 -8.306904 -0.960000
v -3.748871 -9.578255 -0.960000
v 3.748871 -9.578255 -0.960000
v -4.367481 -10.849607 -0.960000
v 4.367481 -10.849607 -0.960000
v -5.032391 -12.120958 -0.960000
v 5.032391 -12.120958 -0.960000
v 0.678822 4.406610 -0.678822
v 0.678822 4.406610 -0.678822
v 0.601533 3.135259 -0.756112
v 0.756112 3.135259 -0.601533
v 0.491504 1.863908 -0.866141
v 0.866141 1.863908 -0.491504
v 0.348735 0.592556 -1.008910
v 1.008910 0.592556 -0.348735
v 0.173228 -0.678795 -1.184417
v 1.184417 -0.678795 -0.173228
v -0.035020 -1.950146 -1.392665
v 1.392665 -1.950146 0.035020
v -0.276006 -3.221498 -1.633651
v 1.633651 -3.221498 0.276006
v -0.549732 -4.492849 -1.907377
v 1.907377 -4.492849 0.549732
v -0.856198 -5.764201 -2.213843
v 2.213843 -5.764201 0.856198
v -1.195403 -7.035553 -2.553047
v 2.553047 -7.035553 1.195403
v -1.567346 -8.306904 -2.924991
v 2.924991 -8.306904 1.567346
v -1.972030 -9.578255 -3.329675
v 3.329675 -9.578255 1.972030
v -2.409453 -10.849607 -3.767098
v 3.767098 -10.849607 2.409453
v -2.879615 -12.120958 -4.237260
v 4.237260 -12.120958 2.879615
v 1.796379 -5.884436 0.000000
v 1.796379 -5.884436 0.000000
v 1.796379 -7.155764 -0.567573
v 1.796379 -7.155764 0.567573
v 1.796379 -8.427090 -1.039410
v 1.796379 -8.427090 1.039410
v 1.796379 -9.698418 -1.179594
v 1.796379 -9.698418 1.179594
v 1.796379 -10.969745 -1.059925
v 1.796379 -10.969745 1.059925
v 1.796379 -12.241072 -0.940256
v 1.796379 -12.241072 0.940256
v 1.796379 -13.512400 -0.820587
v 1.796379 -13.512400 0.820587
v 1.796379 -14.783726 -0.700918
v 1.796379 -14.783726 0.700918
v 1.796379 -16.055054 -0.581249
v 1.796379 -16.055054 0.581249
v 1.796379 -17.326380 -0.461580
v 1.796379 -17.326380 0.461580
v 1.796379 -18.597706 -0.341911
v 1.796379 -18.597706 0.341911
v 1.270232 -5.884436 1.329723
v 1.270232 -5.884436 1.329723
v 1.653611 -7.155764 0.928388
v 0.886853 -7.155764 1.731058
v 1.972324 -8.427090 0.594749
v 0.568140 -8.427090 2.064697
v 2.067014 -9.698418 0.495624
v 0.473450 -9.698418 2.163822
v 1.986181 -10.969745 0.580243
v 0.554283 -10.969745 2.079203
v 1.905348 -12.241072 0.664861
v 0.635116 -12.241072 1.994584
v 1.824515 -13.512400 0.749480
v 0.715949 -13.512400 1.909966
v 1.743682 -14.783726 0.834099
v 0.796782 -14.783726 1.825347
v 1.662849 -16.055054 0.918718
v 0.877615 -16.055054 1.740728
v 1.582016 -17.326380 1.003336
v 0.958448 -17.326380 1.656109
v 1.501183 -18.597706 1.087955
v 1.039281 -18.597706 1.571491
v 0.000000 -5.884436 1.880512
v 0.000000 -5.884436 1.880512
v 0.542180 -7.155764 1.880512
v -0.542180 -7.155764 1.880512
v 0.992908 -8.427090 1.880512
v -0.992908 -8.427090 1.880512
v 1.126820 -9.698418 1.880512
v -1.126820 -9.698418 1.880512
v 1.012505 -10.969745 1.880512
v -1.012505 -10.969745 1.880512
v 0.898190 -12.241072 1.880512
v -0.898190 -12.241072 1.880512
v 0.783875 -13.512400 1.880512
v -0.783875 -13.512400 1.880512
v 0.669560 -14.783726 1.880512
v -0.669560 -14.783726 1.880512
v 0.555245 -16.055054 1.880512
v -0.555245 -16.055054 1.880512
v 0.440929 -17.326380 1.880512
v -0.440929 -17.326380 1.880512
v 0.326614 -18.597706 1.880512
v -0.326614 -18.597706 1.880512
v -1.270232 -5.884436 1.329723
v -1.270232 -5.884436 1.329723
v -0.886853 -7.155764 1.731058
v -1.653611 -7.155764 0.928388
v -0.568140 -8.427090 2.064697
v -1.972324 -8.427090 0.594749
v -0.473450 -9.698418 2.163822
v -2.067014 -9.698418 0.495624
v -0.554283 -10.969745 2.079203
v -1.986181 -10.969745 0.580243
v -0.635116 -12.241072 1.994584
v -1.905348 -12.241072 0.664861
v -0.715949 -13.512400 1.909966
v -1.824515 -13.512400 0.749480
v -0.796782 -14.783726 1.825347
v -1.743682 -14.783726 0.834099
v -0.877615 -16.055054 1.740728
v -1.662849 -16.055054 0.918718
v -0.958448 -17.326380 1.656109
v -1.582016 -17.326380 1.003336
v -1.039281 -18.597706 1.571491
v -1.501183 -18.597706 1.087955
v -1.796379 -5.884436 0.000000
v -1.796379 -5.884436 0.000000
v -1.796379 -7.155764 0.567573
v -1.796379 -7.155764 -0.567573
v -1.796379 -8.427090 1.039410
v -1.796379 -8.427090 -1.039410
v -1.796379 -9.698418 1.179594
v -1.796379 -9.698418 -1.179594
v -1.796379 -10.969745 1.059925
v -1.796379 -10.969745 -1.059925
v -1.796379 -12.241072 0.940256
v -1.796379 -12.241072 -0.940256
v -1.796379 -13.512400 0.820587
v -1.796379 -13.512400 -0.820587
v -1.796379 -14.783726 0.700918
v -1.796379 -14.783726 -0.700918
v -1.796379 -16.055054 0.581249
v -1.796379 -16.055054 -0.581249
v -1.796379 -17.326380 0.461580
v -1.796379 -17.326380 -0.461580
v -1.796379 -18.597706 0.341911
v -1.796379 -18.597706 -0.341911
v -1.270232 -5.884436 -1.329723
v -1.270232 -5.884436 -1.329723
v -1.653611 -7.155764 -0.928388
v -0.886853 -7.155764 -1.731058
v -1.972324 -8.427090 -0.594749
v -0.568140 -8.427090 -2.064697
v -2.067014 -9.698418 -0.495624
v -0.473450 -9.698418 -2.163822
v -1.986181 -10.969745 -0.580243
v -0.554283 -10.969745 -2.079203
v -1.905348 -12.241072 -0.664861
v -0.635116 -12.241072 -1.994584
v -1.824515 -13.512400 -0.749480
v -0.715949 -13.512400 -1.909966
v -1.743682 -14.783726 -0.834099
v -0.796782 -14.783726 -1.825347
v -1.662849 -16.055054 -0.918718
v -0.877615 -16.055054 -1.740728
v -1.582016 -17.326380 -1.003336
v -0.958448 -17.326380 -1.656109
v -1.501183 -18.597706 -1.087955
v -1.039281 -18.597706 -1.571491
v -0.000000 -5.884436 -1.880512
v -0.000000 -5.884436 -1.880512
v -0.542180 -7.155764 -1.880512
v 0.542180 -7.155764 -1.880512
v -0.992908 -8.427090 -1.880512
v 0.992908 -8.427090 -1.880512
v -1.126820 -9.698418 -1.880512
v 1.126820 -9.698418 -1.880512
v -1.012505 -10.969745 -1.880512
v 1.012505 -10.969745 -1.880512
v -0.898190 -12.241072 -1.880512
v 0.898190 -12.241072 -1.880512
v -0.783875 -13.512400 -1.880512
v 0.783875 -13.512400 -1.880512
v -0.669560 -14.783726 -1.880512
v 0.669560 -14.783726 -1.880512
v -0.555245 -16.055054 -1.880512
v 0.555245 -16.055054 -1.880512
v -0.440929 -17.326380 -1.880512
v 0.440929 -17.326380 -1.880512
v -0.326614 -18.597706 -1.880512
v 0.326614 -18.597706 -1.880512
v 1.270232 -5.884436 -1.329723
v 1.270232 -5.884436 -1.329723
v 0.886853 -7.155764 -1.731058
v 1.653611 -7.155764 -0.928388
v 0.568140 -8.427090 -2.064697
v 1.972324 -8.427090 -0.594749
v 0.473450 -9.698418 -2.163822
v 2.067014 -9.698418 -0.495624
v 0.554283 -10.969745 -2.079203
v 1.986181 -10.969745 -0.580243
v 0.635116 -12.241072 -1.994584
v 1.905348 -12.241072 -0.664861
v 0.715949 -13.512400 -1.909966
v 1.824515 -13.512400 -0.749480
v 0.796782 -14.783726 -1.825347
v 1.743682 -14.783726 -0.834099
v 0.877615 -16.055054 -1.740728
v 1.662849 -16.055054 -0.918718
v 0.958448 -17.326380 -1.656109
v 1.582016 -17.326380 -1.003336
v 1.039281 -18.597706 -1.571491
v 1.501183 -18.597706 -1.087955
v 0.000000 2.006611 0.000000
v 0.000000 2.006611 0.000000
v -0.446667 -0.233389 0.000000
v 0.446667 -0.233389 0.000000
v -0.853333 -2.473389 0.000000
v 0.853333 -2.473389 0.000000
v -1.220000 -4.713389 0.000000
v 1.220000 -4.713389 0.000000
v -1.546667 -6.953389 0.000000
v 1.546667 -6.953389 0.000000
v -1.833333 -9.193389 0.000000
v 1.833333 -9.193389 0.000000
v -2.080000 -11.433390 0.000000
v 2.080000 -11.433390 0.000000
v -1.960000 -13.673389 0.000000
v 1.960000 -13.673389 0.000000
v -1.840000 -15.913389 0.000000
v 1.840000 -15.913389 0.000000
v -1.720000 -18.153389 0.000000
v 1.720000 -18.153389 0.000000
v -1.600000 -20.393389 0.000000
v 1.600000 -20.393389 0.000000
v -1.480000 -22.633389 0.000000
v 1.480000 -22.633389 0.000000
v -1.360000 -24.873390 0.000000
v 1.360000 -24.873390 0.000000
v -1.240000 -27.113390 0.000000
v 1.240000 -27.113390 0.000000
v -1.120000 -29.353390 0.000000
v 1.120000 -29.353390 0.000000
v -1.000000 -31.593388 0.000000
v 1.000000 -31.593388 0.000000
v -0.880000 -33.833389 0.000000
v 0.880000 -33.833389 0.000000
v -0.760000 -36.073391 0.000000
v 0.760000 -36.073391 0.000000
v -0.640000 -38.313389 0.000000
v 0.640000 -38.313389 0.000000
v -0.520000 -40.553391 0.000000
v 0.520000 -40.553391 0.000000
v -0.400000 -42.793388 0.000000
v 0.400000 -42.793388 0.000000
vt 0.000000 0.000000
vt 1.000000 0.000000
vt 0.000000 0.076923
vt 1.000000 0.076923
vt 0.000000 0.153846
vt 1.000000 0.153846
vt 0.000000 0.230769
vt 1.000000 0.230769
vt 0.000000 0.307692
vt 1.000000 0.307692
vt 0.000000 0.384615
vt 1.000000 0.384615
vt 0.000000 0.461538
vt 1.000000 0.461538
vt 0.000000 0.538462
vt 1.000000 0.538462
vt 0.000000 0.615385
vt 1.000000 0.615385
vt 0.000000 0.692308
vt 1.000000 0.692308
vt 0.000000 0.769231
vt 1.000000 0.769231
vt 0.000000 0.846154
vt 1.000000 0.846154
vt 0.000000 0.923077
vt 1.000000 0.923077
vt 0.000000 1.000000
vt 1.000000 1.000000
vt 0.000000 0.000000
vt 1.000000 0.000000
vt 0.000000 0.076923
vt 1.000000 0.076923
vt 0.000000 0.153846
vt 1.000000 0.153846
vt 0.000000 0.230769
vt 1.000000 0.230769
vt 0.000000 0.307692
vt 1.000000 0.307692
vt 0.000000 0.384615
vt 1.000000 0.384615
vt 0.000000 0.461538
vt 1.000000 0.461538
vt 0.000000 0.538462
vt 1.000000 0.538462
vt 0.000000 0.615385
vt 1.000000 0.615385
vt 0.000000 0.692308
vt 1.000000 0.692308
vt 0.000000 0.769231
vt 1.000000 0.769231
vt 0.000000 0.846154
vt 1.000000 0.846154
vt 0.000000 0.923077
vt 1.000000 0.923077
vt 0.000000 1.000000
vt 1.000000 1.000000
vt 0.000000 0.000000
vt 1.000000 0.000000
vt 0.000000 0.076923
vt 1.000000 0.076923
vt 0.000000 0.153846
vt 1.000000 0.153846
vt 0.000000 0.230769
vt 1.000000 0.230769
vt 0.000000 0.307692
vt 1.000000 0.307692
vt 0.000000 0.384615
vt 1.000000 0.384615
vt 0.000000 0.461538
vt 1.000000 0.461538
vt 0.000000 0.538462
vt 1.000000 0.538462
vt 0.000000 0.615385
vt 1.000000 0.615385
vt 0.000000 0.692308
vt 1.000000 0.692308
vt 0.000000 0.769231
vt 1.000000 0.769231
vt 0.000000 0.846154
vt 1.000000 0.846154
vt 0.000000 0.923077
vt 1.000000 0.923077
vt 0.000000 1.000000
vt 1.000000 1.000000
vt 0.000000 0.000000
vt 1.000000 0.000000
vt 0.000000 0.076923
vt 1.000000 0.076923
vt 0.000000 0.153846
vt 1.000000 0.153846
vt 0.000000 0.230769
vt 1.000000 0.230769
vt 0.000000 0.307692
vt 1.000000 0.307692
vt 0.000000 0.384615
vt 1.000000 0.384615
vt 0.000000 0.461538
vt 1.000000 0.461538
vt 0.000000 0.538462
vt 1.000000 0.538462
vt 0.000000 0.615385
vt 1.000000 0.615385
vt 0.000000 0.692308
vt 1.000000 0.692308
vt 0.000000 0.769231
vt 1.000000 0.769231
vt 0.000000 0.846154
vt 1.000000 0.846154
vt 0.000000 0.923077
vt 1.000000 0.923077
vt 0.000000 1.000000
vt 1.000000 1.000000
vt 0.000000 0.000000
vt 1.000000 0.000000
vt 0.000000 0.076923
vt 1.000000 0.076923
vt 0.000000 0.153846
vt 1.000000 0.153846
vt 0.000000 0.230769
vt 1.000000 0.230769
vt 0.000000 0.307692
vt 1.000000 0.307692
vt 0.000000 0.384615
vt 1.000000 0.384615
vt 0.000000 0.461538
vt 1.000000 0.461538
vt 0.000000 0.538462
vt 1.000000 0.538462
vt 0.000000 0.615385
vt 1.000000 0.615385
vt 0.000000 0.692308
vt 1.000000 0.692308
vt 0.000000 0.769231
vt 1.000000 0.769231
vt 0.000000 0.846154
vt 1.000000 0.846154
vt 0.000000 0.923077
vt 1.000000 0.923077
vt 0.000000 1.000000
vt 1.000000 1.000000
vt 0.000000 0.000000
vt 1.000000 0.000000
vt 0.000000 0.076923
vt 1.000000 0.076923
vt 0.000000 0.153846
vt 1.000000 0.153846
vt 0.000000 0.230769
vt 1.000000 0.230769
vt 0.000000 0.307692
vt 1.000000 0.307692
vt 0.000000 0.384615
vt 1.000000 0.384615
vt 0.000000 0.461538
vt 1.000000 0.461538
vt 0.000000 0.538462
vt 1.000000 0.538462
vt 0.000000 0.615385
vt 1.000000 0.615385
vt 0.000000 0.692308
vt 1.000000 0.692308
vt 0.000000 0.769231
vt 1.000000 0.769231
vt 0.000000 0.846154
vt 1.000000 0.846154
vt 0.000000 0.923077
vt 1.000000 0.923077
vt 0.000000 1.000000
vt 1.000000 1.000000
vt 0.000000 0.000000
vt 1.000000 0.000000
vt 0.000000 0.076923
vt 1.000000 0.076923
vt 0.000000 0.153846
vt 1.000000 0.153846
vt 0.000000 0.230769
vt 1.000000 0.230769
vt 0.000000 0.307692
vt 1.000000 0.307692
vt 0.000000 0.384615
vt 1.000000 0.384615
vt 0.000000 0.461538
vt 1.000000 0.461538
vt 0.000000 0.538462
vt 1.000000 0.538462
vt 0.000000 0.615385
vt 1.000000 0.615385
vt 0.000000 0.692308
vt 1.000000 0.692308
vt 0.000000 0.769231
vt 1.000000 0.769231
vt 0.000000 0.846154
vt 1.000000 0.846154
vt 0.000000 0.923077
vt 1.000000 0.923077
vt 0.000000 1.000000
vt 1.000000 1.000000
vt 0.000000 0.000000
vt 1.000000 0.000000
vt 0.000000 0.076923
vt 1.000000 0.076923
vt 0.000000 0.153846
vt 1.000000 0.153846
vt 0.000000 0.230769
vt 1.000000 0.230769
vt 0.000000 0.307692
vt 1.000000 0.307692
vt 0.000000 0.384615
vt 1.000000 0.384615
vt 0.000000 0.461538
vt 1.000000 0.461538
vt 0.000000 0.538462
vt 1.000000 0.538462
vt 0.000000 0.615385
vt 1.000000 0.615385
vt 0.000000 0.692308
vt 1.000000 0.692308
vt 0.000000 0.769231
vt 1.000000 0.769231
vt 0.000000 0.846154
vt 1.000000 0.846154
vt 0.000000 0.923077
vt 1.000000 0.923077
vt 0.000000 1.000000
vt 1.000000 1.000000
vt 0.000000 0.000000
vt 1.000000 0.000000
vt 0.000000 0.100000
vt 1.000000 0.100000
vt 0.000000 0.200000
vt 1.000000 0.200000
vt 0.000000 0.300000
vt 1.000000 0.300000
vt 0.000000 0.400000
vt 1.000000 0.400000
vt 0.000000 0.500000
vt 1.000000 0.500000
vt 0.000000 0.600000
vt 1.000000 0.600000
vt 0.000000 0.700000
vt 1.000000 0.700000
vt 0.000000 0.800000
vt 1.000000 0.800000
vt 0.000000 0.900000
vt 1.000000 0.900000
vt 0.000000 1.000000
vt 1.000000 1.000000
vt 0.000000 0.000000
vt 1.000000 0.000000
vt 0.000000 0.100000
vt 1.000000 0.100000
vt 0.000000 0.200000
vt 1.000000 0.200000
vt 0.000000 0.300000
vt 1.000000 0.300000
vt 0.000000 0.400000
vt 1.000000 0.400000
vt 0.000000 0.500000
vt 1.000000 0.500000
vt 0.000000 0.600000
vt 1.000000 0.600000
vt 0.000000 0.700000
vt 1.000000 0.700000
vt 0.000000 0.800000
vt 1.000000 0.800000
vt 0.000000 0.900000
vt 1.000000 0.900000
vt 0.000000 1.000000
vt 1.000000 1.000000
vt 0.000000 0.000000
vt 1.000000 0.000000
vt 0.000000 0.100000
vt 1.000000 0.100000
vt 0.000000 0.200000
vt 1.000000 0.200000
vt 0.000000 0.300000
vt 1.000000 0.300000
vt 0.000000 0.400000
vt 1.000000 0.400000
vt 0.000000 0.500000
vt 1.000000 0.500000
vt 0.000000 0.600000
vt 1.000000 0.600000
vt 0.000000 0.700000
vt 1.000000 0.700000
vt 0.000000 0.800000
vt 1.000000 0.800000
vt 0.000000 0.900000
vt 1.000000 0.900000
vt 0.000000 1.000000
vt 1.000000 1.000000
vt 0.000000 0.000000
vt 1.000000 0.000000
vt 0.000000 0.100000
vt 1.000000 0.100000
vt 0.000000 0.200000
vt 1.000000 0.200000
vt 0.000000 0.300000
vt 1.000000 0.300000
vt 0.000000 0.400000
vt 1.000000 0.400000
vt 0.000000 0.500000
vt 1.000000 0.500000
vt 0.000000 0.600000
vt 1.000000 0.600000
vt 0.000000 0.700000
vt 1.000000 0.700000
vt 0.000000 0.800000
vt 1.000000 0.800000
vt 0.000000 0.900000
vt 1.000000 0.900000
vt 0.000000 1.000000
vt 1.000000 1.000000
vt 0.000000 0.000000
vt 1.000000 0.000000
vt 0.000000 0.100000
vt 1.000000 0.100000
vt 0.000000 0.200000
vt 1.000000 0.200000
vt 0.000000 0.300000
vt 1.000000 0.300000
vt 0.000000 0.400000
vt 1.000000 0.400000
vt 0.000000 0.500000
vt 1.000000 0.500000
vt 0.000000 0.600000
vt 1.000000 0.600000
vt 0.000000 0.700000
vt 1.000000 0.700000
vt 0.000000 0.800000
vt 1.000000 0.800000
vt 0.000000 0.900000
vt 1.000000 0.900000
vt 0.000000 1.000000
vt 1.000000 1.000000
vt 0.000000 0.000000
vt 1.000000 0.000000
vt 0.000000 0.100000
vt 1.000000 0.100000
vt 0.000000 0.200000
vt 1.000000 0.200000
vt 0.000000 0.300000
vt 1.000000 0.300000
vt 0.000000 0.400000
vt 1.000000 0.400000
vt 0.000000 0.500000
vt 1.000000 0.500000
vt 0.000000 0.600000
vt 1.000000 0.600000
vt 0.000000 0.700000
vt 1.000000 0.700000
vt 0.000000 0.800000
vt 1.000000 0.800000
vt 0.000000 0.900000
vt 1.000000 0.900000
vt 0.000000 1.000000
vt 1.000000 1.000000
vt 0.000000 0.000000
vt 1.000000 0.000000
vt 0.000000 0.100000
vt 1.000000 0.100000
vt 0.000000 0.200000
vt 1.000000 0.200000
vt 0.000000 0.300000
vt 1.000000 0.300000
vt 0.000000 0.400000
vt 1.000000 0.400000
vt 0.000000 0.500000
vt 1.000000 0.500000
vt 0.000000 0.600000
vt 1.000000 0.600000
vt 0.000000 0.700000
vt 1.000000 0.700000
vt 0.000000 0.800000
vt 1.000000 0.800000
vt 0.000000 0.900000
vt 1.000000 0.900000
vt 0.000000 1.000000
vt 1.000000 1.000000
vt 0.000000 0.000000
vt 1.000000 0.000000
vt 0.000000 0.100000
vt 1.000000 0.100000
vt 0.000000 0.200000
vt 1.000000 0.200000
vt 0.000000 0.300000
vt 1.000000 0.300000
vt 0.000000 0.400000
vt 1.000000 0.400000
vt 0.000000 0.500000
vt 1.000000 0.500000
vt 0.000000 0.600000
vt 1.000000 0.600000
vt 0.000000 0.700000
vt 1.000000 0.700000
vt 0.000000 0.800000
vt 1.000000 0.800000
vt 0.000000 0.900000
vt 1.000000 0.900000
vt 0.000000 1.000000
vt 1.000000 1.000000
vt 0.000000 0.000000
vt 1.000000 0.000000
vt 0.000000 0.050000
vt 1.000000 0.050000
vt 0.000000 0.100000
vt 1.000000 0.100000
vt 0.000000 0.150000
vt 1.000000 0.150000
vt 0.000000 0.200000
vt 1.000000 0.200000
vt 0.000000 0.250000
vt 1.000000 0.250000
vt 0.000000 0.300000
vt 1.000000 0.300000
vt 0.000000 0.350000
vt 1.000000 0.350000
vt 0.000000 0.400000
vt 1.000000 0.400000
vt 0.000000 0.450000
vt 1.000000 0.450000
vt 0.000000 0.500000
vt 1.000000 0.500000
vt 0.000000 0.550000
vt 1.000000 0.550000
vt 0.000000 0.600000
vt 1.000000 0.600000
vt 0.000000 0.650000
vt 1.000000 0.650000
vt 0.000000 0.700000
vt 1.000000 0.700000
vt 0.000000 0.750000
vt 1.000000 0.750000
vt 0.000000 0.800000
vt 1.000000 0.800000
vt 0.000000 0.850000
vt 1.000000 0.850000
vt 0.000000 0.900000
vt 1.000000 0.900000
vt 0.000000 0.950000
vt 1.000000 0.950000
vt 0.000000 1.000000
vt 1.000000 1.000000
vn 1.000000 0.000000 0.000000
vn 1.000000 0.000000 0.000000
vn 1.000000 0.000000 0.000000
vn 1.000000 0.000000 0.000000
vn 1.000000 0.000000 0.000000
vn 1.000000 0.000000 0.000000
vn 1.000000 0.000000 0.000000
vn 1.000000 0.000000 0.000000
vn 1.000000 0.000000 0.000000
vn 1.000000 0.000000 0.000000
vn 1.000000 0.000000 0.000000
vn 1.000000 0.000000 0.000000
vn 1.000000 0.000000 0.000000
vn 1.000000 0.000000 0.000000
vn 1.000000 0.000000 0.000000
vn 1.000000 0.000000 0.000000
vn 1.000000 0.000000 0.000000
vn 1.000000 0.000000 0.000000
vn 1.000000 0.000000 0.000000
vn 1.000000 0.000000 0.000000
vn 1.000000 0.000000 0.000000
vn 1.000000 0.000000 0.000000
vn 1.000000 0.000000 0.000000
vn 1.000000 0.000000 0.000000
vn 1.000000 0.000000 0.000000
vn 1.000000 0.000000 0.000000
vn 1.000000 0.000000 0.000000
vn 1.000000 0.000000 0.000000
vn 0.707107 0.000000 0.707107
vn 0.707107 0.000000 0.707107
vn 0.707107 0.000000 0.707107
vn 0.707107 0.000000 0.707107
vn 0.707107 0.000000 0.707107
vn 0.707107 0.000000 0.707107
vn 0.707107 0.000000 0.707107
vn 0.707107 0.000000 0.707107
vn 0.707107 0.000000 0.707107
vn 0.707107 0.000000 0.707107
vn 0.707107 0.000000 0.707107
vn 0.707107 0.000000 0.707107
vn 0.707107 0.000000 0.707107
vn 0.707107 0.000000 0.707107
vn 0.707107 0.000000 0.707107
vn 0.707107 0.000000 0.707107
vn 0.707107 0.000000 0.707107
vn 0.707107 0.000000 0.707107
vn 0.707107 0.000000 0.707107
vn 0.707107 0.000000 0.707107
vn 0.707107 0.000000 0.707107
vn 0.707107 0.000000 0.707107
vn 0.707107 0.000000 0.707107
vn 0.707107 0.000000 0.707107
vn 0.707107 0.000000 0.707107
vn 0.707107 0.000000 0.707107
vn 0.707107 0.000000 0.707107
vn 0.707107 0.000000 0.707107
vn 0.000000 0.000000 1.000000
vn 0.000000 0.000000 1.000000
vn 0.000000 0.000000 1.000000
vn 0.000000 0.000000 1.000000
vn 0.000000 0.000000 1.000000
vn 0.000000 0.000000 1.000000
vn 0.000000 0.000000 1.000000
vn 0.000000 0.000000 1.000000
vn 0.000000 0.000000 1.000000
vn 0.000000 0.000000 1.000000
vn 0.000000 0.000000 1.000000
vn 0.000000 0.000000 1.000000
vn 0.000000 0.000000 1.000000
vn 0.000000 0.000000 1.000000
vn 0.000000 0.000000 1.000000
vn 0.000000 0.000000 1.000000
vn 0.000000 0.000000 1.000000
vn 0.000000 0.000000 1.000000
vn 0.000000 0.000000 1.000000
vn 0.000000 0.000000 1.000000
vn 0.000000 0.000000 1.000000
vn 0.000000 0.000000 1.000000
vn 0.000000 0.000000 1.000000
vn 0.000000 0.000000 1.000000
vn 0.000000 0.000000 1.000000
vn 0.000000 0.000000 1.000000
vn 0.000000 0.000000 1.000000
vn 0.000000 0.000000 1.000000
vn -0.707107 0.000000 0.707107
vn -0.707107 0.000000 0.707107
vn -0.707107 0.000000 0.707107
vn -0.707107 0.000000 0.707107
vn -0.707107 0.000000 0.707107
vn -0.707107 0.000000 0.707107
vn -0.707107 0.000000 0.707107
vn -0.707107 0.000000 0.707107
vn -0.707107 0.000000 0.707107
vn -0.707107 0.000000 0.707107
vn -0.707107 0.000000 0.707107
vn -0.707107 0.000000 0.707107
vn -0.707107 0.000000 0.707107
vn -0.707107 0.000000 0.707107
vn -0.707107 0.000000 0.707107
vn -0.707107 0.000000 0.707107
vn -0.707107 0.000000 0.707107
vn -0.707107 0.000000 0.707107
vn -0.707107 0.000000 0.707107
vn -0.707107 0.000000 0.707107
vn -0.707107 0.000000 0.707107
vn -0.707107 0.000000 0.707107
vn -0.707107 0.000000 0.707107
vn -0.707107 0.000000 0.707107
vn -0.707107 0.000000 0.707107
vn -0.707107 0.000000 0.707107
vn -0.707107 0.000000 0.707107
vn -0.707107 0.000000 0.707107
vn -1.000000 0.000000 0.000000
vn -1.000000 0.000000 0.000000
vn -1.000000 0.000000 0.000000
vn -1.000000 0.000000 0.000000
vn -1.000000 0.000000 0.000000
vn -1.000000 0.000000 0.000000
vn -1.000000 0.000000 0.000000
vn -1.000000 0.000000 0.000000
vn -1.000000 0.000000 0.000000
vn -1.000000 0.000000 0.000000
vn -1.000000 0.000000 0.000000
vn -1.000000 0.000000 0.000000
vn -1.000000 0.000000 0.000000
vn -1.000000 0.000000 0.000000
vn -1.000000 0.000000 0.000000
vn -1.000000 0.000000 0.000000
vn -1.000000 0.000000 0.000000
vn -1.000000 0.000000 0.000000
vn -1.000000 0.000000 0.000000
vn -1.000000 0.000000 0.000000
vn -1.000000 0.000000 0.000000
vn -1.000000 0.000000 0.000000
vn -1.000000 0.000000 0.000000
vn -1.000000 0.000000 0.000000
vn -1.000000 0.000000 0.000000
vn -1.000000 0.000000 0.000000
vn -1.000000 0.000000 0.000000
vn -1.000000 0.000000 0.000000
vn -0.707107 0.000000 -0.707107
vn -0.707107 0.000000 -0.707107
vn -0.707107 0.000000 -0.707107
vn -0.707107 0.000000 -0.707107
vn -0.707107 0.000000 -0.707107
vn -0.707107 0.000000 -0.707107
vn -0.707107 0.000000 -0.707107
vn -0.707107 0.000000 -0.707107
vn -0.707107 0.000000 -0.707107
vn -0.707107 0.000000 -0.707107
vn -0.707107 0.000000 -0.707107
vn -0.707107 0.000000 -0.707107
vn -0.707107 0.000000 -0.707107
vn -0.707107 0.000000 -0.707107
vn -0.707107 0.000000 -0.707107
vn -0.707107 0.000000 -0.707107
vn -0.707107 0.000000 -0.707107
vn -0.707107 0.000000 -0.707107
vn -0.707107 0.000000 -0.707107
vn -0.707107 0.000000 -0.707107
vn -0.707107 0.000000 -0.707107
vn -0.707107 0.000000 -0.707107
vn -0.707107 0.000000 -0.707107
vn -0.707107 0.000000 -0.707107
vn -0.707107 0.000000 -0.707107
vn -0.707107 0.000000 -0.707107
vn -0.707107 0.000000 -0.707107
vn -0.707107 0.000000 -0.707107
vn -0.000000 0.000000 -1.000000
vn -0.000000 0.000000 -1.000000
vn -0.000000 0.000000 -1.000000
vn -0.000000 0.000000 -1.000000
vn -0.000000 0.000000 -1.000000
vn -0.000000 0.000000 -1.000000
vn -0.000000 0.000000 -1.000000
vn -0.000000 0.000000 -1.000000
vn -0.000000 0.000000 -1.000000
vn -0.000000 0.000000 -1.000000
vn -0.000000 0.000000 -1.000000
vn -0.000000 0.000000 -1.000000
vn -0.000000 0.000000 -1.000000
vn -0.000000 0.000000 -1.000000
vn -0.000000 0.000000 -1.000000
vn -0.000000 0.000000 -1.000000
vn -0.000000 0.000000 -1.000000
vn -0.000000 0.000000 -1.000000
vn -0.000000 0.000000 -1.000000
vn -0.000000 0.000000 -1.000000
vn -0.000000 0.000000 -1.000000
vn -0.000000 0.000000 -1.000000
vn -0.000000 0.000000 -1.000000
vn -0.000000 0.000000 -1.000000
vn -0.000000 0.000000 -1.000000
vn -0.000000 0.000000 -1.000000
vn -0.000000 0.000000 -1.000000
vn -0.000000 0.000000 -1.000000
vn 0.707107 0.000000 -0.707107
vn 0.707107 0.000000 -0.707107
vn 0.707107 0.000000 -0.707107
vn 0.707107 0.000000 -0.707107
vn 0.707107 0.000000 -0.707107
vn 0.707107 0.000000 -0.707107
vn 0.707107 0.000000 -0.707107
vn 0.707107 0.000000 -0.707107
vn 0.707107 0.000000 -0.707107
vn 0.707107 0.000000 -0.707107
vn 0.707107 0.000000 -0.707107
vn 0.707107 0.000000 -0.707107
vn 0.707107 0.000000 -0.707107
vn 0.707107 0.000000 -0.707107
vn 0.707107 0.000000 -0.707107
vn 0.707107 0.000000 -0.707107
vn 0.707107 0.000000 -0.707107
vn 0.707107 0.000000 -0.707107
vn 0.707107 0.000000 -0.707107
vn 0.707107 0.000000 -0.707107
vn 0.707107 0.000000 -0.707107
vn 0.707107 0.000000 -0.707107
vn 0.707107 0.000000 -0.707107
vn 0.707107 0.000000 -0.707107
vn 0.707107 0.000000 -0.707107
vn 0.707107 0.000000 -0.707107
vn 0.707107 0.000000 -0.707107
vn 0.707107 0.000000 -0.707107
vn 1.000000 0.000000 0.000000
vn 1.000000 0.000000 0.000000
vn 1.000000 0.000000 0.000000
vn 1.000000 0.000000 0.000000
vn 1.000000 0.000000 0.000000
vn 1.000000 0.000000 0.000000
vn 1.000000 0.000000 0.000000
vn 1.000000 0.000000 0.000000
vn 1.000000 0.000000 0.000000
vn 1.000000 0.000000 0.000000
vn 1.000000 0.000000 0.000000
vn 1.000000 0.000000 0.000000
vn 1.000000 0.000000 0.000000
vn 1.000000 0.000000 0.000000
vn 1.000000 0.000000 0.000000
vn 1.000000 0.000000 0.000000
vn 1.000000 0.000000 0.000000
vn 1.000000 0.000000 0.000000
vn 1.000000 0.000000 0.000000
vn 1.000000 0.000000 0.000000
vn 1.000000 0.000000 0.000000
vn 1.000000 0.000000 0.000000
vn 0.723097 0.000000 0.690746
vn 0.723097 0.000000 0.690746
vn 0.723097 0.000000 0.690746
vn 0.723097 0.000000 0.690746
vn 0.723097 0.000000 0.690746
vn 0.723097 0.000000 0.690746
vn 0.723097 0.000000 0.690746
vn 0.723097 0.000000 0.690746
vn 0.723097 0.000000 0.690746
vn 0.723097 0.000000 0.690746
vn 0.723097 0.000000 0.690746
vn 0.723097 0.000000 0.690746
vn 0.723097 0.000000 0.690746
vn 0.723097 0.000000 0.690746
vn 0.723097 0.000000 0.690746
vn 0.723097 0.000000 0.690746
vn 0.723097 0.000000 0.690746
vn 0.723097 0.000000 0.690746
vn 0.723097 0.000000 0.690746
vn 0.723097 0.000000 0.690746
vn 0.723097 0.000000 0.690746
vn 0.723097 0.000000 0.690746
vn 0.000000 0.000000 1.000000
vn 0.000000 0.000000 1.000000
vn 0.000000 0.000000 1.000000
vn 0.000000 0.000000 1.000000
vn 0.000000 0.000000 1.000000
vn 0.000000 0.000000 1.000000
vn 0.000000 0.000000 1.000000
vn 0.000000 0.000000 1.000000
vn 0.000000 0.000000 1.000000
vn 0.000000 0.000000 1.000000
vn 0.000000 0.000000 1.000000
vn 0.000000 0.000000 1.000000
vn 0.000000 0.000000 1.000000
vn 0.000000 0.000000 1.000000
vn 0.000000 0.000000 1.000000
vn 0.000000 0.000000 1.000000
vn 0.000000 0.000000 1.000000
vn 0.000000 0.000000 1.000000
vn 0.000000 0.000000 1.000000
vn 0.000000 0.000000 1.000000
vn 0.000000 0.000000 1.000000
vn 0.000000 0.000000 1.000000
vn -0.723097 0.000000 0.690746
vn -0.723097 0.000000 0.690746
vn -0.723097 0.000000 0.690746
vn -0.723097 0.000000 0.690746
vn -0.723097 0.000000 0.690746
vn -0.723097 0.000000 0.690746
vn -0.723097 0.000000 0.690746
vn -0.723097 0.000000 0.690746
vn -0.723097 0.000000 0.690746
vn -0.723097 0.000000 0.690746
vn -0.723097 0.000000 0.690746
vn -0.723097 0.000000 0.690746
vn -0.723097 0.000000 0.690746
vn -0.723097 0.000000 0.690746
vn -0.723097 0.000000 0.690746
vn -0.723097 0.000000 0.690746
vn -0.723097 0.000000 0.690746
vn -0.723097 0.000000 0.690746
vn -0.723097 0.000000 0.690746
vn -0.723097 0.000000 0.690746
vn -0.723097 0.000000 0.690746
vn -0.723097 0.000000 0.690746
vn -1.000000 0.000000 0.000000
vn -1.000000 0.000000 0.000000
vn -1.000000 0.000000 0.000000
vn -1.000000 0.000000 0.000000
vn -1.000000 0.000000 0.000000
vn -1.000000 0.000000 0.000000
vn -1.000000 0.000000 0.000000
vn -1.000000 0.000000 0.000000
vn -1.000000 0.000000 0.000000
vn -1.000000 0.000000 0.000000
vn -1.000000 0.000000 0.000000
vn -1.000000 0.000000 0.000000
vn -1.000000 0.000000 0.000000
vn -1.000000 0.000000 0.000000
vn -1.000000 0.000000 0.000000
vn -1.000000 0.000000 0.000000
vn -1.000000 0.000000 0.000000
vn -1.000000 0.000000 0.000000
vn -1.000000 0.000000 0.000000
vn -1.000000 0.000000 0.000000
vn -1.000000 0.000000 0.000000
vn -1.000000 0.000000 0.000000
vn -0.723097 0.000000 -0.690746
vn -0.723097 0.000000 -0.690746
vn -0.723097 0.000000 -0.690746
vn -0.723097 0.000000 -0.690746
vn -0.723097 0.000000 -0.690746
vn -0.723097 0.000000 -0.690746
vn -0.723097 0.000000 -0.690746
vn -0.723097 0.000000 -0.690746
vn -0.723097 0.000000 -0.690746
vn -0.723097 0.000000 -0.690746
vn -0.723097 0.000000 -0.690746
vn -0.723097 0.000000 -0.690746
vn -0.723097 0.000000 -0.690746
vn -0.723097 0.000000 -0.690746
vn -0.723097 0.000000 -0.690746
vn -0.723097 0.000000 -0.690746
vn -0.723097 0.000000 -0.690746
vn -0.723097 0.000000 -0.690746
vn -0.723097 0.000000 -0.690746
vn -0.723097 0.000000 -0.690746
vn -0.723097 0.000000 -0.690746
vn -0.723097 0.000000 -0.690746
vn -0.000000 0.000000 -1.000000
vn -0.000000 0.000000 -1.000000
vn -0.000000 0.000000 -1.000000
vn -0.000000 0.000000 -1.000000
vn -0.000000 0.000000 -1.000000
vn -0.000000 0.000000 -1.000000
vn -0.000000 0.000000 -1.000000
vn -0.000000 0.000000 -1.000000
vn -0.000000 0.000000 -1.000000
vn -0.000000 0.000000 -1.000000
vn -0.000000 0.000000 -1.000000
vn -0.000000 0.000000 -1.000000
vn -0.000000 0.000000 -1.000000
vn -0.000000 0.000000 -1.000000
vn -0.000000 0.000000 -1.000000
vn -0.000000 0.000000 -1.000000
vn -0.000000 0.000000 -1.000000
vn -0.000000 0.000000 -1.000000
vn -0.000000 0.000000 -1.000000
vn -0.000000 0.000000 -1.000000
vn -0.000000 0.000000 -1.000000
vn -0.000000 0.000000 -1.000000
vn 0.723097 0.000000 -0.690746
vn 0.723097 0.000000 -0.690746
vn 0.723097 0.000000 -0.690746
vn 0.723097 0.000000 -0.690746
vn 0.723097 0.000000 -0.690746
vn 0.723097 0.000000 -0.690746
vn 0.723097 0.000000 -0.690746
vn 0.723097 0.000000 -0.690746
vn 0.723097 0.000000 -0.690746
vn 0.723097 0.000000 -0.690746
vn 0.723097 0.000000 -0.690746
vn 0.723097 0.000000 -0.690746
vn 0.723097 0.000000 -0.690746
vn 0.723097 0.000000 -0.690746
vn 0.723097 0.000000 -0.690746
vn 0.723097 0.000000 -0.690746
vn 0.723097 0.000000 -0.690746
vn 0.723097 0.000000 -0.690746
vn 0.723097 0.000000 -0.690746
vn 0.723097 0.000000 -0.690746
vn 0.723097 0.000000 -0.690746
vn 0.723097 0.000000 -0.690746
vn 0.000000 0.000000 1.000000
vn 0.000000 0.000000 1.000000
vn 0.000000 0.000000 1.000000
vn 0.000000 0.000000 1.000000
vn 0.000000 0.000000 1.000000
vn 0.000000 0.000000 1.000000
vn 0.000000 0.000000 1.000000
vn 0.000000 0.000000 1.000000
vn 0.000000 0.000000 1.000000
vn 0.000000 0.000000 1.000000
vn 0.000000 0.000000 1.000000
vn 0.000000 0.000000 1.000000
vn 0.000000 0.000000 1.000000
vn 0.000000 0.000000 1.000000
vn 0.000000 0.000000 1.000000
vn 0.000000 0.000000 1.000000
vn 0.000000 0.000000 1.000000
vn 0.000000 0.000000 1.000000
vn 0.000000 0.000000 1.000000
vn 0.000000 0.000000 1.000000
vn 0.000000 0.000000 1.000000
vn 0.000000 0.000000 1.000000
vn 0.000000 0.000000 1.000000
vn 0.000000 0.000000 1.000000
vn 0.000000 0.000000 1.000000
vn 0.000000 0.000000 1.000000
vn 0.000000 0.000000 1.000000
vn 0.000000 0.000000 1.000000
vn 0.000000 0.000000 1.000000
vn 0.000000 0.000000 1.000000
vn 0.000000 0.000000 1.000000
vn 0.000000 0.000000 1.000000
vn 0.000000 0.000000 1.000000
vn 0.000000 0.000000 1.000000
vn 0.000000 0.000000 1.000000
vn 0.000000 0.000000 1.000000
vn 0.000000 0.000000 1.000000
vn 0.000000 0.000000 1.000000
vn 0.000000 0.000000 1.000000
vn 0.000000 0.000000 1.000000
vn 0.000000 0.000000 1.000000
vn 0.000000 0.000000 1.000000
g WispRing1
f 1/1/1 2/2/2 4/4/4
f 1/1/1 4/4/4 3/3/3
f 3/3/3 4/4/4 6/6/6
f 3/3/3 6/6/6 5/5/5
f 5/5/5 6/6/6 8/8/8
f 5/5/5 8/8/8 7/7/7
f 7/7/7 8/8/8 10/10/10
f 7/7/7 10/10/10 9/9/9
f 9/9/9 10/10/10 12/12/12
f 9/9/9 12/12/12 11/11/11
f 11/11/11 12/12/12 14/14/14
f 11/11/11 14/14/14 13/13/13
f 13/13/13 14/14/14 16/16/16
f 13/13/13 16/16/16 15/15/15
f 15/15/15 16/16/16 18/18/18
f 15/15/15 18/18/18 17/17/17
f 17/17/17 18/18/18 20/20/20
f 17/17/17 20/20/20 19/19/19
f 19/19/19 20/20/20 22/22/22
f 19/19/19 22/22/22 21/21/21
f 21/21/21 22/22/22 24/24/24
f 21/21/21 24/24/24 23/23/23
f 23/23/23 24/24/24 26/26/26
f 23/23/23 26/26/26 25/25/25
f 25/25/25 26/26/26 28/28/28
f 25/25/25 28/28/28 27/27/27
f 29/29/29 30/30/30 32/32/32
f 29/29/29 32/32/32 31/31/31
f 31/31/31 32/32/32 34/34/34
f 31/31/31 34/34/34 33/33/33
f 33/33/33 34/34/34 36/36/36
f 33/33/33 36/36/36 35/35/35
f 35/35/35 36/36/36 38/38/38
f 35/35/35 38/38/38 37/37/37
f 37/37/37 38/38/38 40/40/40
f 37/37/37 40/40/40 39/39/39
f 39/39/39 40/40/40 42/42/42
f 39/39/39 42/42/42 41/41/41
f 41/41/41 42/42/42 44/44/44
f 41/41/41 44/44/44 43/43/43
f 43/43/43 44/44/44 46/46/46
f 43/43/43 46/46/46 45/45/45
f 45/45/45 46/46/46 48/48/48
f 45/45/45 48/48/48 47/47/47
f 47/47/47 48/48/48 50/50/50
f 47/47/47 50/50/50 49/49/49
f 49/49/49 50/50/50 52/52/52
f 49/49/49 52/52/52 51/51/51
f 51/51/51 52/52/52 54/54/54
f 51/51/51 54/54/54 53/53/53
f 53/53/53 54/54/54 56/56/56
f 53/53/53 56/56/56 55/55/55
f 57/57/57 58/58/58 60/60/60
f 57/57/57 60/60/60 59/59/59
f 59/59/59 60/60/60 62/62/62
f 59/59/59 62/62/62 61/61/61
f 61/61/61 62/62/62 64/64/64
f 61/61/61 64/64/64 63/63/63
f 63/63/63 64/64/64 66/66/66
f 63/63/63 66/66/66 65/65/65
f 65/65/65 66/66/66 68/68/68
f 65/65/65 68/68/68 67/67/67
f 67/67/67 68/68/68 70/70/70
f 67/67/67 70/70/70 69/69/69
f 69/69/69 70/70/70 72/72/72
f 69/69/69 72/72/72 71/71/71
f 71/71/71 72/72/72 74/74/74
f 71/71/71 74/74/74 73/73/73
f 73/73/73 74/74/74 76/76/76
f 73/73/73 76/76/76 75/75/75
f 75/75/75 76/76/76 78/78/78
f 75/75/75 78/78/78 77/77/77
f 77/77/77 78/78/78 80/80/80
f 77/77/77 80/80/80 79/79/79
f 79/79/79 80/80/80 82/82/82
f 79/79/79 82/82/82 81/81/81
f 81/81/81 82/82/82 84/84/84
f 81/81/81 84/84/84 83/83/83
f 85/85/85 86/86/86 88/88/88
f 85/85/85 88/88/88 87/87/87
f 87/87/87 88/88/88 90/90/90
f 87/87/87 90/90/90 89/89/89
f 89/89/89 90/90/90 92/92/92
f 89/89/89 92/92/92 91/91/91
f 91/91/91 92/92/92 94/94/94
f 91/91/91 94/94/94 93/93/93
f 93/93/93 94/94/94 96/96/96
f 93/93/93 96/96/96 95/95/95
f 95/95/95 96/96/96 98/98/98
f 95/95/95 98/98/98 97/97/97
f 97/97/97 98/98/98 100/100/100
f 97/97/97 100/100/100 99/99/99
f 99/99/99 100/100/100 102/102/102
f 99/99/99 102/102/102 101/101/101
f 101/101/101 102/102/102 104/104/104
f 101/101/101 104/104/104 103/103/103
f 103/103/103 104/104/104 106/106/106
f 103/103/103 106/106/106 105/105/105
f 105/105/105 106/106/106 108/108/108
f 105/105/105 108/108/108 107/107/107
f 107/107/107 108/108/108 110/110/110
f 107/107/107 110/110/110 109/109/109
f 109/109/109 110/110/110 112/112/112
f 109/109/109 112/112/112 111/111/111
f 113/113/113 114/114/114 116/116/116
f 113/113/113 116/116/116 115/115/115
f 115/115/115 116/116/116 118/118/118
f 115/115/115 118/118/118 117/117/117
f 117/117/117 118/118/118 120/120/120
f 117/117/117 120/120/120 119/119/119
f 119/119/119 120/120/120 122/122/122
f 119/119/119 122/122/122 121/121/121
f 121/121/121 122/122/122 124/124/124
f 121/121/121 124/124/124 123/123/123
f 123/123/123 124/124/124 126/126/126
f 123/123/123 126/126/126 125/125/125
f 125/125/125 126/126/126 128/128/128
f 125/125/125 128/128/128 127/127/127
f 127/127/127 128/128/128 130/130/130
f 127/127/127 130/130/130 129/129/129
f 129/129/129 130/130/130 132/132/132
f 129/129/129 132/132/132 131/131/131
f 131/131/131 132/132/132 134/134/134
f 131/131/131 134/134/134 133/133/133
f 133/133/133 134/134/134 136/136/136
f 133/133/133 136/136/136 135/135/135
f 135/135/135 136/136/136 138/138/138
f 135/135/135 138/138/138 137/137/137
f 137/137/137 138/138/138 140/140/140
f 137/137/137 140/140/140 139/139/139
f 141/141/141 142/142/142 144/144/144
f 141/141/141 144/144/144 143/143/143
f 143/143/143 144/144/144 146/146/146
f 143/143/143 146/146/146 145/145/145
f 145/145/145 146/146/146 148/148/148
f 145/145/145 148/148/148 147/147/147
f 147/147/147 148/148/148 150/150/150
f 147/147/147 150/150/150 149/149/149
f 149/149/149 150/150/150 152/152/152
f 149/149/149 152/152/152 151/151/151
f 151/151/151 152/152/152 154/154/154
f 151/151/151 154/154/154 153/153/153
f 153/153/153 154/154/154 156/156/156
f 153/153/153 156/156/156 155/155/155
f 155/155/155 156/156/156 158/158/158
f 155/155/155 158/158/158 157/157/157
f 157/157/157 158/158/158 160/160/160
f 157/157/157 160/160/160 159/159/159
f 159/159/159 160/160/160 162/162/162
f 159/159/159 162/162/162 161/161/161
f 161/161/161 162/162/162 164/164/164
f 161/161/161 164/164/164 163/163/163
f 163/163/163 164/164/164 166/166/166
f 163/163/163 166/166/166 165/165/165
f 165/165/165 166/166/166 168/168/168
f 165/165/165 168/168/168 167/167/167
f 169/169/169 170/170/170 172/172/172
f 169/169/169 172/172/172 171/171/171
f 171/171/171 172/172/172 174/174/174
f 171/171/171 174/174/174 173/173/173
f 173/173/173 174/174/174 176/176/176
f 173/173/173 176/176/176 175/175/175
f 175/175/175 176/176/176 178/178/178
f 175/175/175 178/178/178 177/177/177
f 177/177/177 178/178/178 180/180/180
f 177/177/177 180/180/180 179/179/179
f 179/179/179 180/180/180 182/182/182
f 179/179/179 182/182/182 181/181/181
f 181/181/181 182/182/182 184/184/184
f 181/181/181 184/184/184 183/183/183
f 183/183/183 184/184/184 186/186/186
f 183/183/183 186/186/186 185/185/185
f 185/185/185 186/186/186 188/188/188
f 185/185/185 188/188/188 187/187/187
f 187/187/187 188/188/188 190/190/190
f 187/187/187 190/190/190 189/189/189
f 189/189/189 190/190/190 192/192/192
f 189/189/189 192/192/192 191/191/191
f 191/191/191 192/192/192 194/194/194
f 191/191/191 194/194/194 193/193/193
f 193/193/193 194/194/194 196/196/196
f 193/193/193 196/196/196 195/195/195
f 197/197/197 198/198/198 200/200/200
f 197/197/197 200/200/200 199/199/199
f 199/199/199 200/200/200 202/202/202
f 199/199/199 202/202/202 201/201/201
f 201/201/201 202/202/202 204/204/204
f 201/201/201 204/204/204 203/203/203
f 203/203/203 204/204/204 206/206/206
f 203/203/203 206/206/206 205/205/205
f 205/205/205 206/206/206 208/208/208
f 205/205/205 208/208/208 207/207/207
f 207/207/207 208/208/208 210/210/210
f 207/207/207 210/210/210 209/209/209
f 209/209/209 210/210/210 212/212/212
f 209/209/209 212/212/212 211/211/211
f 211/211/211 212/212/212 214/214/214
f 211/211/211 214/214/214 213/213/213
f 213/213/213 214/214/214 216/216/216
f 213/213/213 216/216/216 215/215/215
f 215/215/215 216/216/216 218/218/218
f 215/215/215 218/218/218 217/217/217
f 217/217/217 218/218/218 220/220/220
f 217/217/217 220/220/220 219/219/219
f 219/219/219 220/220/220 222/222/222
f 219/219/219 222/222/222 221/221/221
f 221/221/221 222/222/222 224/224/224
f 221/221/221 224/224/224 223/223/223
g WispRing2
f 225/225/225 226/226/226 228/228/228
f 225/225/225 228/228/228 227/227/227
f 227/227/227 228/228/228 230/230/230
f 227/227/227 230/230/230 229/229/229
f 229/229/229 230/230/230 232/232/232
f 229/229/229 232/232/232 231/231/231
f 231/231/231 232/232/232 234/234/234
f 231/231/231 234/234/234 233/233/233
f 233/233/233 234/234/234 236/236/236
f 233/233/233 236/236/236 235/235/235
f 235/235/235 236/236/236 238/238/238
f 235/235/235 238/238/238 237/237/237
f 237/237/237 238/238/238 240/240/240
f 237/237/237 240/240/240 239/239/239
f 239/239/239 240/240/240 242/242/242
f 239/239/239 242/242/242 241/241/241
f 241/241/241 242/242/242 244/244/244
f 241/241/241 244/244/244 243/243/243
f 243/243/243 244/244/244 246/246/246
f 243/243/243 246/246/246 245/245/245
f 247/247/247 248/248/248 250/250/250
f 247/247/247 250/250/250 249/249/249
f 249/249/249 250/250/250 252/252/252
f 249/249/249 252/252/252 251/251/251
f 251/251/251 252/252/252 254/254/254
f 251/251/251 254/254/254 253/253/253
f 253/253/253 254/254/254 256/256/256
f 253/253/253 256/256/256 255/255/255
f 255/255/255 256/256/256 258/258/258
f 255/255/255 258/258/258 257/257/257
f 257/257/257 258/258/258 260/260/260
f 257/257/257 260/260/260 259/259/259
f 259/259/259 260/260/260 262/262/262
f 259/259/259 262/262/262 261/261/261
f 261/261/261 262/262/262 264/264/264
f 261/261/261 264/264/264 263/263/263
f 263/263/263 264/264/264 266/266/266
f 263/263/263 266/266/266 265/265/265
f 265/265/265 266/266/266 268/268/268
f 265/265/265 268/268/268 267/267/267
f 269/269/269 270/270/270 272/272/272
f 269/269/269 272/272/272 271/271/271
f 271/271/271 272/272/272 274/274/274
f 271/271/271 274/274/274 273/273/273
f 273/273/273 274/274/274 276/276/276
f 273/273/273 276/276/276 275/275/275
f 275/275/275 276/276/276 278/278/278
f 275/275/275 278/278/278 277/277/277
f 277/277/277 278/278/278 280/280/280
f 277/277/277 280/280/280 279/279/279
f 279/279/279 280/280/280 282/282/282
f 279/279/279 282/282/282 281/281/281
f 281/281/281 282/282/282 284/284/284
f 281/281/281 284/284/284 283/283/283
f 283/283/283 284/284/284 286/286/286
f 283/283/283 286/286/286 285/285/285
f 285/285/285 286/286/286 288/288/288
f 285/285/285 288/288/288 287/287/287
f 287/287/287 288/288/288 290/290/290
f 287/287/287 290/290/290 289/289/289
f 291/291/291 292/292/292 294/294/294
f 291/291/291 294/294/294 293/293/293
f 293/293/293 294/294/294 296/296/296
f 293/293/293 296/296/296 295/295/295
f 295/295/295 296/296/296 298/298/298
f 295/295/295 298/298/298 297/297/297
f 297/297/297 298/298/298 300/300/300
f 297/297/297 300/300/300 299/299/299
f 299/299/299 300/300/300 302/302/302
f 299/299/299 302/302/302 301/301/301
f 301/301/301 302/302/302 304/304/304
f 301/301/301 304/304/304 303/303/303
f 303/303/303 304/304/304 306/306/306
f 303/303/303 306/306/306 305/305/305
f 305/305/305 306/306/306 308/308/308
f 305/305/305 308/308/308 307/307/307
f 307/307/307 308/308/308 310/310/310
f 307/307/307 310/310/310 309/309/309
f 309/309/309 310/310/310 312/312/312
f 309/309/309 312/312/312 311/311/311
f 313/313/313 314/314/314 316/316/316
f 313/313/313 316/316/316 315/315/315
f 315/315/315 316/316/316 318/318/318
f 315/315/315 318/318/318 317/317/317
f 317/317/317 318/318/318 320/320/320
f 317/317/317 320/320/320 319/319/319
f 319/319/319 320/320/320 322/322/322
f 319/319/319 322/322/322 321/321/321
f 321/321/321 322/322/322 324/324/324
f 321/321/321 324/324/324 323/323/323
f 323/323/323 324/324/324 326/326/326
f 323/323/323 326/326/326 325/325/325
f 325/325/325 326/326/326 328/328/328
f 325/325/325 328/328/328 327/327/327
f 327/327/327 328/328/328 330/330/330
f 327/327/327 330/330/330 329/329/329
f 329/329/329 330/330/330 332/332/332
f 329/329/329 332/332/332 331/331/331
f 331/331/331 332/332/332 334/334/334
f 331/331/331 334/334/334 333/333/333
f 335/335/335 336/336/336 338/338/338
f 335/335/335 338/338/338 337/337/337
f 337/337/337 338/338/338 340/340/340
f 337/337/337 340/340/340 339/339/339
f 339/339/339 340/340/340 342/342/342
f 339/339/339 342/342/342 341/341/341
f 341/341/341 342/342/342 344/344/344
f 341/341/341 344/344/344 343/343/343
f 343/343/343 344/344/344 346/346/346
f 343/343/343 346/346/346 345/345/345
f 345/345/345 346/346/346 348/348/348
f 345/345/345 348/348/348 347/347/347
f 347/347/347 348/348/348 350/350/350
f 347/347/347 350/350/350 349/349/349
f 349/349/349 350/350/350 352/352/352
f 349/349/349 352/352/352 351/351/351
f 351/351/351 352/352/352 354/354/354
f 351/351/351 354/354/354 353/353/353
f 353/353/353 354/354/354 356/356/356
f 353/353/353 356/356/356 355/355/355
f 357/357/357 358/358/358 360/360/360
f 357/357/357 360/360/360 359/359/359
f 359/359/359 360/360/360 362/362/362
f 359/359/359 362/362/362 361/361/361
f 361/361/361 362/362/362 364/364/364
f 361/361/361 364/364/364 363/363/363
f 363/363/363 364/364/364 366/366/366
f 363/363/363 366/366/366 365/365/365
f 365/365/365 366/366/366 368/368/368
f 365/365/365 368/368/368 367/367/367
f 367/367/367 368/368/368 370/370/370
f 367/367/367 370/370/370 369/369/369
f 369/369/369 370/370/370 372/372/372
f 369/369/369 372/372/372 371/371/371
f 371/371/371 372/372/372 374/374/374
f 371/371/371 374/374/374 373/373/373
f 373/373/373 374/374/374 376/376/376
f 373/373/373 376/376/376 375/375/375
f 375/375/375 376/376/376 378/378/378
f 375/375/375 378/378/378 377/377/377
f 379/379/379 380/380/380 382/382/382
f 379/379/379 382/382/382 381/381/381
f 381/381/381 382/382/382 384/384/384
f 381/381/381 384/384/384 383/383/383
f 383/383/383 384/384/384 386/386/386
f 383/383/383 386/386/386 385/385/385
f 385/385/385 386/386/386 388/388/388
f 385/385/385 388/388/388 387/387/387
f 387/387/387 388/388/388 390/390/390
f 387/387/387 390/390/390 389/389/389
f 389/389/389 390/390/390 392/392/392
f 389/389/389 392/392/392 391/391/391
f 391/391/391 392/392/392 394/394/394
f 391/391/391 394/394/394 393/393/393
f 393/393/393 394/394/394 396/396/396
f 393/393/393 396/396/396 395/395/395
f 395/395/395 396/396/396 398/398/398
f 395/395/395 398/398/398 397/397/397
f 397/397/397 398/398/398 400/400/400
f 397/397/397 400/400/400 399/399/399
g CapeStrip
f 401/401/401 402/402/402 404/404/404
f 401/401/401 404/404/404 403/403/403
f 403/403/403 404/404/404 406/406/406
f 403/403/403 406/406/406 405/405/405
f 405/405/405 406/406/406 408/408/408
f 405/405/405 408/408/408 407/407/407
f 407/407/407 408/408/408 410/410/410
f 407/407/407 410/410/410 409/409/409
f 409/409/409 410/410/410 412/412/412
f 409/409/409 412/412/412 411/411/411
f 411/411/411 412/412/412 414/414/414
f 411/411/411 414/414/414 413/413/413
f 413/413/413 414/414/414 416/416/416
f 413/413/413 416/416/416 415/415/415
f 415/415/415 416/416/416 418/418/418
f 415/415/415 418/418/418 417/417/417
f 417/417/417 418/418/418 420/420/420
f 417/417/417 420/420/420 419/419/419
f 419/419/419 420/420/420 422/422/422
f 419/419/419 422/422/422 421/421/421
f 421/421/421 422/422/422 424/424/424
f 421/421/421 424/424/424 423/423/423
f 423/423/423 424/424/424 426/426/426
f 423/423/423 426/426/426 425/425/425
f 425/425/425 426/426/426 428/428/428
f 425/425/425 428/428/428 427/427/427
f 427/427/427 428/428/428 430/430/430
f 427/427/427 430/430/430 429/429/429
f 429/429/429 430/430/430 432/432/432
f 429/429/429 432/432/432 431/431/431
f 431/431/431 432/432/432 434/434/434
f 431/431/431 434/434/434 433/433/433
f 433/433/433 434/434/434 436/436/436
f 433/433/433 436/436/436 435/435/435
f 435/435/435 436/436/436 438/438/438
f 435/435/435 438/438/438 437/437/437
f 437/437/437 438/438/438 440/440/440
f 437/437/437 440/440/440 439/439/439
f 439/439/439 440/440/440 442/442/442
f 439/439/439 442/442/442 441/441/441
